#!OML:ASF E:\emotionWalksFemale\Project 1\Capture day 1\Session 1\Female1.ASF
:FULLY-SPECIFIED
:DEGREES
1
root 8.44264 15.1215 42.294 -179.873 -11.4936 -179.49
lowerback 4.10697 2.7859 1.36344
upperback -0.176828 3.76131 -0.561162
thorax -2.35497 1.85385 -1.56338
lowerneck -0.955132 16.2487 8.89037
upperneck 0.448766 21.6497 -5.55741
head 1.96565 10.7996 -2.48669
rclavicle 4.21517e-014 -7.95139e-015
rhumerus -39.3097 19.5605 -98.4504
rradius 33.7055
rwrist 13.761
rhand -7.60462 -54.2036
rfingers 7.12502
rthumb 18.2892 -83.3638
lclavicle 4.21517e-014 -7.95139e-015
lhumerus -36.7386 -14.5493 93.7742
lradius 37.627
lwrist -11.5869
lhand -1.66321 -37.0041
lfingers 7.12502
lthumb 23.9964 -8.48393
rfemur -7.77203 6.19539 24.0463
rtibia 30.2984
rfoot -26.2531 -30.5864
rtoes 10.9349
lfemur -11.523 -23.2142 -24.5591
ltibia 30.5839
lfoot -23.9011 10.3132
ltoes -22.5711
2
root 8.44792 15.1212 42.2988 -180.042 -11.5215 -179.734
lowerback 4.48338 2.77985 1.00746
upperback -0.14619 3.73622 -0.580353
thorax -2.55661 1.8426 -1.40381
lowerneck -1.00782 16.2761 8.88445
upperneck 0.608696 21.6852 -5.5038
head 2.02289 10.8182 -2.45458
rclavicle 1.49523e-014 -7.25564e-015
rhumerus -39.3104 19.6097 -98.4271
rradius 33.6589
rwrist 14.0417
rhand -7.45068 -54.0922
rfingers 7.12502
rthumb 18.4373 -83.2384
lclavicle 1.49523e-014 -7.25564e-015
lhumerus -36.8 -14.531 93.8161
lradius 37.5179
lwrist -12.2619
lhand -2.84535 -37.4906
lfingers 7.12502
lthumb 22.8624 -8.82581
rfemur -7.66997 6.47 23.8816
rtibia 30.5862
rfoot -26.7219 -30.6635
rtoes 11.6871
lfemur -11.1785 -23.1725 -24.8776
ltibia 30.3236
lfoot -23.7769 10.3137
ltoes -23.0577
3
root 8.44647 15.1201 42.315 -180.002 -10.9947 -179.971
lowerback 4.84147 2.94356 0.826168
upperback -0.21347 3.94337 -0.668023
thorax -2.82647 1.9441 -1.42958
lowerneck -0.868177 16.3615 8.93845
upperneck 0.555613 21.8097 -5.5332
head 2.00059 10.8822 -2.47681
rclavicle -4.77829e-014 -7.95139e-016
rhumerus -39.3214 19.6651 -98.4672
rradius 33.6693
rwrist 14.0669
rhand -6.83864 -54.2571
rfingers 7.12502
rthumb 19.026 -83.3466
lclavicle -4.77829e-014 -7.95139e-016
lhumerus -36.7661 -14.4629 93.7641
lradius 37.7005
lwrist -11.768
lhand -1.8995 -37.3991
lfingers 7.12502
lthumb 23.7698 -8.84936
rfemur -7.8909 6.79248 23.5697
rtibia 30.6664
rfoot -26.5117 -30.7673
rtoes 11.3499
lfemur -11.1585 -23.0993 -25.1511
ltibia 30.2188
lfoot -23.7641 10.784
ltoes -23.1497
4
root 8.44489 15.1215 42.3008 -179.952 -11.4681 -179.893
lowerback 4.50417 2.79052 0.897026
upperback -0.156144 3.74201 -0.659331
thorax -2.5801 1.84591 -1.4252
lowerneck -0.947087 16.3535 8.89172
upperneck 0.520386 21.7875 -5.41296
head 1.97862 10.8699 -2.43109
rclavicle -6.63444e-014 4.67144e-015
rhumerus -39.2806 19.655 -98.4837
rradius 33.6287
rwrist 14.0441
rhand -6.96575 -54.2297
rfingers 7.12502
rthumb 18.9038 -83.3311
lclavicle -6.63444e-014 4.67144e-015
lhumerus -36.7532 -14.5334 93.761
lradius 37.5061
lwrist -12.2553
lhand -3.04816 -37.7383
lfingers 7.12502
lthumb 22.6677 -9.04951
rfemur -7.84309 6.54372 23.6882
rtibia 30.7624
rfoot -26.8529 -31.1114
rtoes 11.7078
lfemur -11.1329 -23.2268 -25.0362
ltibia 30.0935
lfoot -23.7483 10.3548
ltoes -23.2437
5
root 8.44324 15.1212 42.2998 -179.986 -11.4813 -179.961
lowerback 4.53328 2.80111 0.852656
upperback -0.125437 3.75157 -0.707354
thorax -2.56413 1.85082 -1.45089
lowerneck -0.821949 16.3628 9.11334
upperneck 0.437168 21.8108 -5.58998
head 1.98202 10.8822 -2.52684
rclavicle -5.53553e-014 9.93923e-016
rhumerus -39.2205 19.583 -98.4808
rradius 33.6264
rwrist 13.9579
rhand -6.48872 -54.5104
rfingers 7.12502
rthumb 19.3625 -83.5664
lclavicle -5.53553e-014 9.93923e-016
lhumerus -36.6608 -14.5161 93.6682
lradius 37.6036
lwrist -11.6951
lhand -1.65138 -37.4736
lfingers 7.12502
lthumb 24.0077 -8.95499
rfemur -7.81863 6.43362 23.6032
rtibia 30.849
rfoot -26.8373 -31.0038
rtoes 11.6185
lfemur -11.0189 -23.228 -25.1435
ltibia 30.0125
lfoot -23.7262 10.2509
ltoes -23.5946
6
root 8.44127 15.1208 42.298 -179.969 -11.4753 -180.075
lowerback 4.53785 2.82309 0.744251
upperback -0.121358 3.77358 -0.740847
thorax -2.56656 1.86273 -1.42645
lowerneck -0.811783 16.3238 9.16724
upperneck 0.446216 21.7595 -5.61039
head 1.98897 10.8569 -2.54437
rclavicle -4.80438e-014 7.55382e-015
rhumerus -39.2074 19.5267 -98.4406
rradius 33.6811
rwrist 13.8891
rhand -6.733 -54.0938
rfingers 7.12502
rthumb 19.1276 -83.1732
lclavicle -4.80438e-014 7.55382e-015
lhumerus -36.6794 -14.6968 93.7937
lradius 37.249
lwrist -12.6249
lhand -3.6984 -38.2059
lfingers 7.12502
lthumb 22.0436 -9.4422
rfemur -7.80983 6.2881 23.449
rtibia 30.8241
rfoot -26.6912 -30.8341
rtoes 11.1538
lfemur -10.9856 -23.2057 -25.2863
ltibia 30.0051
lfoot -23.7043 10.3535
ltoes -23.7202
7
root 8.44099 15.1204 42.3004 -179.965 -11.3983 -180.099
lowerback 4.60989 2.84986 0.693881
upperback -0.126846 3.80712 -0.724459
thorax -2.61603 1.87963 -1.38814
lowerneck -0.767187 16.328 9.18494
upperneck 0.475034 21.7714 -5.6579
head 2.00054 10.8638 -2.56269
rclavicle 1.27284e-014 5.1684e-015
rhumerus -39.2305 19.668 -98.4716
rradius 33.618
rwrist 13.7434
rhand -7.50603 -53.4666
rfingers 7.12502
rthumb 18.3841 -82.6178
lclavicle 1.27284e-014 5.1684e-015
lhumerus -36.5944 -14.5587 93.8224
lradius 37.0673
lwrist -13.0613
lhand -4.29059 -38.3368
lfingers 7.12502
lthumb 21.4749 -9.50711
rfemur -7.83567 6.30095 23.4142
rtibia 30.823
rfoot -26.6329 -30.7569
rtoes 10.7878
lfemur -11.0073 -23.1761 -25.3105
ltibia 30.028
lfoot -23.7383 10.4487
ltoes -23.3306
8
root 8.44127 15.1231 42.2983 -179.885 -11.5078 -179.921
lowerback 4.47618 2.79982 0.833664
upperback -0.131622 3.75016 -0.668131
thorax -2.54239 1.85104 -1.39707
lowerneck -0.75773 16.3077 9.11053
upperneck 0.298047 21.7418 -5.68489
head 1.93193 10.8471 -2.57278
rclavicle 3.97569e-014 5.06901e-015
rhumerus -39.2226 19.7727 -98.5194
rradius 33.565
rwrist 13.5815
rhand -7.73503 -53.5273
rfingers 7.12502
rthumb 18.1638 -82.6992
lclavicle 3.97569e-014 5.06901e-015
lhumerus -36.6534 -14.8058 93.926
lradius 37.3029
lwrist -12.4894
lhand -3.76907 -37.8472
lfingers 7.12502
lthumb 21.9757 -9.07557
rfemur -7.93528 6.30533 23.6157
rtibia 30.8328
rfoot -26.6897 -30.8175
rtoes 10.9849
lfemur -11.1665 -23.221 -25.0512
ltibia 30.0442
lfoot -23.7761 10.2862
ltoes -23.2648
9
root 8.44157 15.1211 42.2966 -179.874 -11.5614 -179.81
lowerback 4.41533 2.76011 0.906427
upperback -0.115907 3.70194 -0.633094
thorax -2.4912 1.82701 -1.39468
lowerneck -0.564951 16.3609 9.29682
upperneck 0.158324 21.8312 -5.93291
head 1.91512 10.8928 -2.68976
rclavicle -1.66606e-014 -2.48481e-015
rhumerus -39.2245 19.825 -98.5466
rradius 33.6779
rwrist 13.4021
rhand -7.53397 -53.825
rfingers 7.12502
rthumb 18.3572 -82.9788
lclavicle -1.66606e-014 -2.48481e-015
lhumerus -36.5627 -14.6139 93.8345
lradius 37.52
lwrist -11.8422
lhand -2.3672 -37.6614
lfingers 7.12502
lthumb 23.3212 -9.054
rfemur -7.98323 6.21865 23.7266
rtibia 30.859
rfoot -26.6132 -30.7653
rtoes 11.3779
lfemur -11.2146 -23.2674 -24.9092
ltibia 30.0392
lfoot -23.7727 10.1993
ltoes -23.3225
10
root 8.44129 15.116 42.2961 -179.902 -11.5215 -179.964
lowerback 4.45795 2.74913 0.731003
upperback -0.0766975 3.67608 -0.667787
thorax -2.48419 1.81575 -1.33209
lowerneck -0.529571 16.3425 9.31423
upperneck 0.0494303 21.809 -6.02558
head 1.88562 10.881 -2.73021
rclavicle -5.27711e-014 -4.87022e-015
rhumerus -39.2363 19.9123 -98.5779
rradius 33.7608
rwrist 13.2799
rhand -7.28047 -54.1534
rfingers 7.12502
rthumb 18.6011 -83.2841
lclavicle -5.27711e-014 -4.87022e-015
lhumerus -36.5082 -14.5351 93.805
lradius 37.3463
lwrist -12.2423
lhand -3.03945 -37.5852
lfingers 7.12502
lthumb 22.6761 -8.8975
rfemur -7.94711 6.18474 23.555
rtibia 30.9013
rfoot -26.58 -30.6808
rtoes 11.6252
lfemur -11.1286 -23.2326 -25.1115
ltibia 29.9994
lfoot -23.6329 10.2424
ltoes -23.0712
11
root 8.44077 15.1182 42.297 -179.851 -11.439 -180.097
lowerback 4.4795 2.7832 0.589107
upperback -0.0891243 3.71243 -0.710754
thorax -2.51423 1.83484 -1.30111
lowerneck -0.472465 16.3461 9.21569
upperneck -0.0343135 21.8141 -5.93152
head 1.82352 10.8841 -2.69819
rclavicle -5.14045e-014 1.43125e-014
rhumerus -39.2716 19.8641 -98.5719
rradius 33.7427
rwrist 13.3682
rhand -7.29297 -54.1247
rfingers 7.12502
rthumb 18.589 -83.2565
lclavicle -5.14045e-014 1.43125e-014
lhumerus -36.4041 -14.4892 93.7245
lradius 37.4397
lwrist -11.6602
lhand -1.5524 -37.2807
lfingers 7.12502
lthumb 24.1026 -8.77461
rfemur -8.00558 6.28008 23.4103
rtibia 30.9609
rfoot -26.6553 -30.6214
rtoes 11.6639
lfemur -11.1302 -23.0937 -25.2435
ltibia 29.9268
lfoot -23.48 10.2821
ltoes -23.1192
12
root 8.43966 15.1205 42.2923 -179.833 -11.5197 -180.139
lowerback 4.42456 2.77375 0.537744
upperback -0.0789192 3.69656 -0.722601
thorax -2.47581 1.82778 -1.28028
lowerneck -0.413938 16.4039 8.96179
upperneck -0.120128 21.8867 -5.61143
head 1.71629 10.9215 -2.57414
rclavicle 8.8894e-015 -1.09332e-014
rhumerus -39.29 19.7525 -98.5348
rradius 33.709
rwrist 13.4997
rhand -7.2266 -54.0958
rfingers 7.12502
rthumb 18.6529 -83.2215
lclavicle 8.8894e-015 -1.09332e-014
lhumerus -36.452 -14.6552 93.8287
lradius 37.3066
lwrist -12.2258
lhand -2.90695 -37.5539
lfingers 7.12502
lthumb 22.8033 -8.88173
rfemur -8.02429 6.26405 23.3756
rtibia 31.075
rfoot -26.828 -30.6171
rtoes 11.6673
lfemur -11.0818 -23.0349 -25.2851
ltibia 29.8316
lfoot -23.4182 10.2228
ltoes -23.8278
13
root 8.43686 15.114 42.2746 -180.117 -12.0896 -180.128
lowerback 4.36656 2.58393 0.545853
upperback 0.105442 3.44211 -0.69615
thorax -2.26094 1.70214 -1.23285
lowerneck -0.2945 16.4943 8.90503
upperneck -0.299087 22.0113 -5.55491
head 1.63091 10.9838 -2.56174
rclavicle -6.75868e-015 5.36719e-015
rhumerus -39.2271 19.6472 -98.4372
rradius 33.7432
rwrist 13.8038
rhand -6.74137 -54.3215
rfingers 7.12502
rthumb 19.1196 -83.4018
lclavicle -6.75868e-015 5.36719e-015
lhumerus -36.3747 -14.6572 93.8179
lradius 37.3704
lwrist -11.9236
lhand -2.5242 -37.8904
lfingers 7.12502
lthumb 23.1705 -9.26397
rfemur -7.53018 5.8963 23.4558
rtibia 31.0986
rfoot -27.2294 -30.6658
rtoes 12.3285
lfemur -10.6779 -23.1953 -25.4262
ltibia 29.8217
lfoot -23.4425 9.87191
ltoes -24.3083
